<svg width="221" height="246" viewBox="0 0 221 246" fill="none" xmlns="http://www.w3.org/2000/svg">
<circle opacity="0.6" cx="110.5" cy="110.5" r="110.5" fill="#463579"/>
<path d="M141.672 216.188H83.2472C73.2268 216.188 65.0288 208.022 65.0288 198.042V146.628C65.0288 136.648 73.2268 128.482 83.2472 128.482H141.672C151.693 128.482 159.891 136.648 159.891 146.628V198.042C159.891 208.022 151.692 216.188 141.672 216.188Z" fill="white"/>
<path d="M141.672 128.482C151.692 128.482 159.89 136.647 159.89 146.627V198.041C159.89 208.022 151.692 216.187 141.672 216.187H83.2475C73.2271 216.187 65.0291 208.022 65.0291 198.041V146.627C65.0291 136.647 73.2271 128.482 83.2475 128.482H141.672V128.482ZM141.672 125.614H83.2475C80.4098 125.614 77.6511 126.172 75.0478 127.274C72.5384 128.336 70.2832 129.853 68.3448 131.784C66.4064 133.715 64.8826 135.962 63.8163 138.46C62.7105 141.053 62.1494 143.801 62.1494 146.627V198.041C62.1494 200.868 62.7105 203.615 63.8163 206.208C64.8826 208.708 66.4056 210.954 68.3448 212.884C70.2832 214.815 72.5392 216.333 75.0478 217.395C77.6511 218.496 80.4098 219.055 83.2475 219.055H141.673C144.51 219.055 147.269 218.496 149.872 217.395C152.382 216.333 154.637 214.816 156.575 212.884C158.514 210.954 160.037 208.707 161.104 206.208C162.21 203.615 162.771 200.868 162.771 198.041V146.627C162.771 143.801 162.21 141.053 161.104 138.46C160.037 135.961 158.515 133.715 156.575 131.784C154.637 129.854 152.381 128.336 149.872 127.274C147.269 126.172 144.509 125.614 141.672 125.614Z" fill="#00227B"/>
<path d="M158.584 184.396C149.487 185.458 140.421 185.72 140.421 185.72C140.421 185.72 135.803 162.787 134.523 144.805C133.58 131.481 134.467 120.878 140.421 124.336C143.16 125.927 146.314 128.924 149.603 132.726C161.941 146.989 176.115 172.601 176.893 177.915C177.395 181.333 167.977 183.293 158.584 184.396Z" fill="white"/>
<path d="M139.203 187.247L138.954 186.014C138.926 185.873 136.102 171.782 134.275 157.192C133.197 148.59 132.671 141.488 132.709 136.083C132.76 128.701 133.837 124.515 136.095 122.908C137.086 122.202 138.773 121.655 141.176 123.05C149.096 127.652 159.147 142.313 164.434 150.642C167.961 156.198 171.337 162.038 173.941 167.086C175.775 170.643 178.034 175.371 178.375 177.699C178.475 178.375 178.408 179.401 177.528 180.445C176.255 181.954 173.611 183.136 169.207 184.162C165.978 184.914 161.829 185.561 156.874 186.086C148.486 186.973 140.544 187.209 140.465 187.211L139.203 187.247ZM138.358 125.167C138.07 125.167 137.918 125.275 137.835 125.333C136.859 126.028 133.931 130.35 137.244 156.808C138.744 168.79 140.922 180.439 141.646 184.184C144.2 184.081 150.261 183.787 156.574 183.119C171.233 181.566 174.507 179.39 175.236 178.527C175.437 178.289 175.421 178.178 175.413 178.13C174.988 175.234 169.458 164.136 161.904 152.235C153.156 138.452 145.052 128.753 139.668 125.625C139.057 125.27 138.642 125.167 138.358 125.167Z" fill="#00227B"/>
<path d="M94.134 123.49L92.2926 137.362L91.2453 145.249L89.0114 162.087C89.0114 162.087 84.9289 164.853 78.1378 167.044C75.6004 167.865 72.678 168.598 69.4528 169.079C64.1805 169.869 58.0847 169.97 51.4803 168.624C34.4887 165.158 24.2914 152.587 19.8764 146.267C11.3435 134.067 10.0304 130.769 12.4024 125.633C14.2133 121.697 17.316 120.978 17.316 120.978C17.316 120.978 17.1629 117.833 19.6625 116.715C27.1537 113.364 36.8039 122.313 36.8039 122.313C36.8039 122.313 37.1635 112.689 42.3345 114.911C45.8971 116.443 46.705 126.92 46.705 126.92C46.705 126.92 51.4869 133.04 59.0835 133.852C63.0533 134.276 68.5469 133.129 74.0026 131.463C74.066 131.444 74.1302 131.426 74.1935 131.403C77.1011 130.509 79.9899 129.472 82.635 128.447C83.8215 127.989 84.9585 127.53 86.0248 127.091C90.7919 125.123 94.134 123.49 94.134 123.49Z" fill="white"/>
<path opacity="0.35" d="M19.8738 146.267C24.2929 152.586 34.4886 165.159 51.4786 168.625C62.121 170.793 71.447 169.2 78.1385 167.042C84.9296 164.853 89.0113 162.086 89.0113 162.086L89.3108 148.798C89.3108 148.798 84.6836 144.357 80.3739 146.168C75.1955 148.343 76.855 155.739 69.4592 157.796C48.8992 163.514 32.1972 153.067 26.8229 148.48C19.367 142.118 17.422 138.111 16.373 136.457C14.2017 133.036 12.5249 130.347 11.5796 127.939C10.6161 132.012 12.673 135.968 19.8738 146.267Z" fill="#00227B"/>
<path d="M61.7317 171.148C58.184 171.148 54.651 170.793 51.179 170.084C43.5413 168.526 36.4153 165.019 30.0003 159.658C25.8717 156.208 22.0516 151.988 18.647 147.119C14.492 141.175 11.851 137.093 10.6465 133.813C9.49212 130.67 9.60648 128.12 11.0397 125.01C12.4508 121.946 14.5842 120.538 15.8735 119.934C16.0841 118.359 16.9044 116.316 19.0485 115.357C25.1402 112.631 32.1699 116.849 35.6494 119.445C35.6831 119.269 35.7209 119.089 35.7613 118.906C36.338 116.33 37.3335 114.581 38.7199 113.71C39.5715 113.175 40.9924 112.712 42.93 113.545C44.8956 114.391 46.3296 116.881 47.3153 121.158C47.8196 123.349 48.0624 125.406 48.1537 126.317C49.2118 127.511 53.347 131.739 59.2445 132.369C70.0104 133.518 93.2402 122.265 93.4739 122.151C93.9692 121.909 94.5583 121.959 95.0058 122.28C95.4534 122.6 95.6879 123.141 95.6163 123.685L90.4971 162.281C90.4412 162.702 90.2083 163.079 89.8554 163.318C89.6842 163.434 85.5786 166.19 78.7522 168.411C74.7536 169.713 70.6398 170.56 66.526 170.931C64.9273 171.076 63.3279 171.148 61.7317 171.148ZM17.6621 122.427C17.4688 122.479 15.184 123.161 13.7598 126.252C11.8419 130.415 12.3134 132.841 21.1029 145.414C29.3667 157.235 39.9738 164.755 51.7788 167.163C62.5347 169.356 71.8772 167.511 77.8208 165.577C82.8594 163.937 86.3339 161.981 87.6191 161.2L92.2891 125.995C89.8496 127.105 85.8592 128.848 81.3809 130.52C71.4123 134.24 63.8561 135.859 58.9253 135.333C50.7906 134.465 45.7356 128.106 45.5241 127.836C45.344 127.605 45.2354 127.326 45.2131 127.034C45.2115 127.01 45.0083 124.465 44.3896 121.792C43.3471 117.286 42.0998 116.435 41.7427 116.281C40.8492 115.897 40.4633 116.139 40.3177 116.23C39.0597 117.018 38.3785 120.294 38.2962 122.368C38.2731 122.95 37.9111 123.466 37.3706 123.689C36.8292 123.911 36.2088 123.799 35.7802 123.402C35.6913 123.32 26.7668 115.171 20.2744 118.076C18.7786 118.745 18.8058 120.765 18.8099 120.91C18.8543 121.646 18.3853 122.274 17.6621 122.427Z" fill="#00227B"/>
<path d="M38.035 122.311C38.0695 122.73 38.007 123.111 37.9231 123.441C37.8811 123.612 37.8293 123.759 37.7766 123.911C37.7231 124.053 37.6647 124.197 37.6071 124.325C37.371 124.855 37.1159 125.293 36.8732 125.719C36.6297 126.141 36.3952 126.544 36.1772 126.947L36.0176 127.25C35.9674 127.352 35.9139 127.453 35.8653 127.555L35.7238 127.863L35.5889 128.174L35.4663 128.491L35.3528 128.812C35.3141 128.919 35.2853 129.029 35.2507 129.138C35.2145 129.247 35.1874 129.359 35.1578 129.469C35.0442 129.915 34.9463 130.374 34.8895 130.847C34.8278 131.319 34.7883 131.803 34.7768 132.296C34.7645 132.543 34.7694 132.791 34.767 133.043C34.7628 133.169 34.7735 133.294 34.7744 133.421C34.7768 133.548 34.7809 133.675 34.7801 133.803V133.812C34.7801 133.912 34.6995 133.992 34.5991 133.992C34.5292 133.992 34.4691 133.953 34.4395 133.894C34.1993 133.431 33.982 132.949 33.8142 132.446C33.6373 131.944 33.5106 131.421 33.4176 130.886C33.235 129.816 33.2391 128.683 33.4398 127.577L33.5229 127.164C33.555 127.028 33.5904 126.893 33.6241 126.756C33.6603 126.621 33.7007 126.488 33.7385 126.353C33.778 126.219 33.8249 126.089 33.8685 125.957C34.0487 125.433 34.2717 124.934 34.5012 124.467C34.7299 124.001 34.9735 123.561 35.1709 123.179C35.3791 122.792 35.4967 122.478 35.5659 122.309L35.7107 121.954C35.9624 121.338 36.6675 121.043 37.2854 121.293C37.7223 121.472 37.9979 121.874 38.035 122.311Z" fill="#00227B"/>
<path d="M49.8349 169.648C49.4573 169.648 49.0928 169.44 48.9134 169.08C48.66 168.574 48.8673 167.959 49.3758 167.707C53.525 165.651 56.3602 159.234 57.573 149.15C58.5134 141.336 58.1226 134.068 58.1185 133.996C58.0872 133.431 58.5208 132.948 59.0877 132.916C59.6521 132.884 60.14 133.316 60.1721 133.881C60.1762 133.955 60.5769 141.378 59.6184 149.367C59.0515 154.094 58.1259 158.106 56.8671 161.289C55.238 165.41 53.0256 168.186 50.2924 169.541C50.1451 169.614 49.9888 169.648 49.8349 169.648Z" fill="#00227B"/>
<g opacity="0.35">
<g opacity="0.35">
<g opacity="0.35">
<g opacity="0.35">
<path opacity="0.35" d="M182.569 235.583V235.374C180.924 235.445 182.569 235.583 182.569 235.583Z" fill="#00227B"/>
</g>
</g>
</g>
</g>
<path d="M161.81 210.418H63.0048C63.0048 210.418 63.607 193.434 69.4519 169.079C71.7943 159.31 74.9825 148.357 79.3119 136.836C80.3519 134.071 81.4601 131.272 82.635 128.447C85.9203 120.564 89.7519 112.491 94.2204 104.419H130.595C134.289 111.093 137.548 117.765 140.422 124.335C142.281 128.584 143.98 132.788 145.529 136.917C152.291 154.919 156.262 171.534 158.585 184.395C161.451 200.262 161.81 210.418 161.81 210.418Z" fill="white"/>
<path d="M148.246 149.584C150.155 151.707 151.028 154.179 151.835 156.661C152.24 157.903 152.639 159.147 153.02 160.396C153.21 161.021 153.406 161.644 153.577 162.274C153.752 162.903 153.922 163.534 154.093 164.164L154.593 166.058C154.758 166.69 154.924 167.321 155.079 167.956L155.988 171.766C156.136 172.402 156.298 173.034 156.443 173.671L156.877 175.58L157.322 177.487C157.471 178.122 157.626 178.757 157.766 179.394L158.623 183.215C158.771 183.851 158.897 184.492 159.033 185.13L159.435 187.047L159.635 188.005L159.736 188.485L159.829 188.965L160.205 190.886C160.331 191.527 160.46 192.167 160.595 192.806C160.725 193.446 160.856 194.086 160.993 194.725C161.566 197.276 161.983 199.86 162.157 202.477C162.179 202.804 162.205 203.13 162.22 203.459L162.262 204.443C162.284 205.1 162.302 205.757 162.292 206.418C162.288 207.078 162.273 207.738 162.23 208.401C162.192 209.064 162.137 209.727 162.036 210.395C162.017 210.524 161.896 210.612 161.767 210.593C161.679 210.58 161.61 210.52 161.58 210.443L161.58 210.44C161.107 209.19 160.721 207.935 160.357 206.679C160.178 206.052 160.005 205.422 159.838 204.794L159.597 203.849C159.522 203.533 159.444 203.219 159.365 202.903C159.059 201.642 158.789 200.378 158.546 199.107C158.429 198.471 158.323 197.834 158.226 197.195C158.121 196.556 158.025 195.917 157.926 195.278C157.829 194.638 157.727 194 157.623 193.361C157.513 192.724 157.39 192.089 157.266 191.454L156.893 189.548L156.8 189.072L156.701 188.597L156.501 187.647L156.103 185.747C155.968 185.114 155.842 184.479 155.697 183.848L154.846 180.059C154.709 179.426 154.55 178.798 154.399 178.169L153.934 176.283L153.458 174.401C153.381 174.087 153.293 173.775 153.209 173.463L152.953 172.526L151.925 168.781C151.57 167.536 151.206 166.294 150.86 165.047C150.687 164.423 150.514 163.799 150.346 163.174L150.221 162.706L150.089 162.238L149.828 161.303C149.48 160.057 149.15 158.805 148.825 157.551L148.586 156.609C148.507 156.295 148.419 155.983 148.335 155.67C148.168 155.044 148.028 154.41 147.923 153.765C147.818 153.119 147.745 152.464 147.717 151.793C147.702 151.458 147.7 151.119 147.713 150.775C147.726 150.431 147.748 150.082 147.809 149.723L147.811 149.709C147.834 149.573 147.964 149.481 148.1 149.504C148.159 149.514 148.21 149.544 148.246 149.584Z" fill="#00227B"/>
<path d="M62.7729 210.41C62.6207 210.073 62.5162 209.738 62.4183 209.401C62.3204 209.063 62.2472 208.73 62.1822 208.394C62.0506 207.722 61.9798 207.054 61.9403 206.388C61.9222 206.054 61.9099 205.721 61.9107 205.389C61.9115 205.058 61.9247 204.727 61.9403 204.397L61.9963 203.406C62.0135 203.076 62.0341 202.746 62.0612 202.416C62.1641 201.099 62.2645 199.779 62.4192 198.468C62.4891 197.811 62.5673 197.155 62.6446 196.499C62.6824 196.171 62.7334 195.845 62.7779 195.517L62.9169 194.536L63.2074 192.577C63.3094 191.925 63.4279 191.276 63.5389 190.625C63.766 189.324 63.9799 188.022 64.2391 186.728C64.4909 185.433 64.7212 184.134 64.9788 182.841C65.2404 181.548 65.4955 180.255 65.7472 178.96C65.8114 178.636 65.869 178.312 65.9389 177.989L66.1463 177.022L66.5601 175.089L66.974 173.155C67.0093 172.993 67.0414 172.832 67.0784 172.671L67.192 172.19L67.4191 171.227L68.3266 167.376C68.3998 167.055 68.4821 166.736 68.5635 166.416C68.6425 166.096 68.7231 165.776 68.7988 165.456C68.9519 164.814 69.1033 164.172 69.2489 163.529C69.3978 162.887 69.5434 162.242 69.6973 161.601C69.8454 160.958 70.0313 160.325 70.2173 159.691C70.4073 159.06 70.6089 158.431 70.8204 157.805C71.0326 157.18 71.2581 156.558 71.486 155.937L71.8381 155.01C71.8974 154.856 71.9632 154.703 72.0274 154.55C72.0924 154.398 72.1549 154.244 72.2223 154.092C72.4881 153.483 72.7571 152.877 73.0435 152.276C73.3265 151.674 73.6219 151.076 73.932 150.485C74.2422 149.893 74.5639 149.305 74.921 148.73C74.9893 148.619 75.1349 148.585 75.246 148.654C75.3217 148.701 75.362 148.783 75.3579 148.867V148.87C75.2098 151.575 74.7013 154.148 74.1994 156.72C74.0703 157.362 73.9386 158.002 73.7938 158.64C73.6482 159.277 73.4919 159.91 73.3257 160.54C72.9785 161.797 72.6296 163.054 72.266 164.308C72.0841 164.934 71.9072 165.562 71.732 166.191C71.6431 166.505 71.56 166.82 71.4753 167.135C71.3922 167.45 71.3066 167.765 71.2359 168.084L70.3382 171.893L70.1136 172.846L70.0017 173.322C69.9647 173.481 69.9326 173.641 69.898 173.799L69.4883 175.713L69.0786 177.626L68.8737 178.584C68.8054 178.902 68.7478 179.224 68.6845 179.543C67.633 184.656 66.9262 189.83 66.2392 194.994L65.9727 196.929C65.8896 197.575 65.8065 198.221 65.716 198.866L65.1861 202.736C65.0898 203.381 65.0125 204.026 64.9253 204.671C64.88 204.993 64.8323 205.316 64.7722 205.637C64.713 205.958 64.6546 206.279 64.5822 206.6C64.4382 207.241 64.2597 207.88 64.0482 208.517C63.9429 208.836 63.817 209.156 63.6879 209.474C63.5554 209.792 63.4114 210.111 63.2337 210.428L63.232 210.432C63.1629 210.555 63.0074 210.599 62.884 210.53C62.8322 210.501 62.7952 210.458 62.7729 210.41Z" fill="#00227B"/>
<path d="M91.4623 188.99C85.8272 191.262 77.1059 190.787 71.1607 190.07C67.5948 189.641 65.0911 186.363 65.6169 182.823C66.0966 179.594 68.9507 177.245 72.2245 177.398C77.7855 177.657 86.1275 177.779 91.4105 176.612" fill="white"/>
<g opacity="0.35">
<g opacity="0.35">
<g opacity="0.35">
<g opacity="0.35">
<path opacity="0.35" d="M91.4638 188.989C85.827 191.265 77.1057 190.784 71.1605 190.072C67.5946 189.642 65.0918 186.363 65.6175 182.826C65.722 182.104 65.9499 181.426 66.2733 180.807C67.212 182.593 68.99 183.909 71.1605 184.171C77.095 184.888 85.8015 185.364 91.4391 183.103L91.4638 188.989Z" fill="#00227B"/>
</g>
</g>
</g>
</g>
<path d="M80.2587 192.153C76.9981 192.153 73.7565 191.885 70.9805 191.551C68.8544 191.294 66.9678 190.219 65.6679 188.523C64.3655 186.823 63.8216 184.722 64.1359 182.606C64.4222 180.678 65.4112 178.933 66.9201 177.693C68.4307 176.452 70.3395 175.818 72.2944 175.91C80.4866 176.292 87.1601 176.025 91.0855 175.158C91.8737 174.984 93.8318 174.978 94.9878 178.679C96.1619 182.44 96.0319 188.757 92.0242 190.373C88.7192 191.705 84.4737 192.153 80.2587 192.153ZM71.9209 178.882C69.5069 178.882 67.4549 180.633 67.0978 183.041C66.9029 184.354 67.2402 185.659 68.0481 186.713C68.8536 187.765 70.0228 188.431 71.3408 188.59C79.8424 189.614 86.7898 189.266 90.9012 187.608C92.1221 187.116 92.4726 185.145 92.5673 184.321C92.8964 181.436 92.0152 178.771 91.4631 178.126C86.1053 179.248 78.0315 179.162 72.1554 178.887C72.0764 178.883 71.9982 178.882 71.9209 178.882Z" fill="#00227B"/>
<path d="M134.566 188.99C140.201 191.262 148.922 190.787 154.868 190.07C158.434 189.641 160.937 186.363 160.412 182.823C159.932 179.594 157.078 177.245 153.804 177.398C148.243 177.657 139.901 177.779 134.618 176.612" fill="white"/>
<g opacity="0.35">
<g opacity="0.35">
<g opacity="0.35">
<g opacity="0.35">
<path opacity="0.35" d="M154.866 190.072C148.921 190.785 140.2 191.265 134.563 188.989L134.587 183.048C140.224 185.309 148.931 184.834 154.866 184.116C157.027 183.859 158.795 182.553 159.738 180.777C160.071 181.401 160.304 182.088 160.414 182.825C160.935 186.363 158.433 189.642 154.866 190.072Z" fill="#00227B"/>
</g>
</g>
</g>
</g>
<path d="M145.77 192.153C141.555 192.153 137.31 191.705 134.004 190.372C129.997 188.756 129.867 182.439 131.041 178.678C132.196 174.978 134.155 174.983 134.943 175.157C138.869 176.025 145.543 176.292 153.734 175.909C155.691 175.819 157.598 176.452 159.108 177.693C160.617 178.933 161.606 180.677 161.893 182.605C162.207 184.721 161.662 186.822 160.361 188.522C159.061 190.218 157.174 191.293 155.048 191.55C152.272 191.884 149.03 192.153 145.77 192.153ZM134.566 178.126C134.014 178.771 133.133 181.436 133.462 184.321C133.556 185.145 133.906 187.116 135.128 187.608C139.24 189.266 146.187 189.615 154.689 188.59C156.006 188.431 157.176 187.765 157.981 186.713C158.789 185.659 159.127 184.355 158.932 183.041C158.563 180.556 156.389 178.771 153.875 178.887C147.997 179.162 139.924 179.247 134.566 178.126Z" fill="#00227B"/>
<path d="M136.744 172.522V192.358C136.744 196.038 133.72 199.051 130.025 199.051H93.3466C89.6565 199.051 86.6321 196.038 86.6321 192.358V172.522C86.6321 168.841 89.6565 165.834 93.3466 165.834H130.025C132.2 165.834 134.142 166.878 135.373 168.485C136.232 169.608 136.744 171.008 136.744 172.522Z" fill="white"/>
<g opacity="0.35">
<g opacity="0.35">
<g opacity="0.35">
<g opacity="0.35">
<path opacity="0.35" d="M136.743 172.522V192.358C136.743 196.038 133.72 199.049 130.025 199.049H93.3479C89.6528 199.049 86.63 196.038 86.63 192.358V184.939C92.1384 190.532 102.972 194.044 112.907 194.096C116.1 194.113 118.675 191.598 118.903 188.426C118.905 188.394 118.908 188.362 118.91 188.331C119.155 185.548 121.456 183.295 124.253 183.094C127.439 182.865 130.129 185.209 130.444 188.255C135.253 182.342 133.844 172.064 135.374 168.485C136.234 169.609 136.743 171.007 136.743 172.522Z" fill="#00227B"/>
</g>
</g>
</g>
</g>
<path d="M130.026 200.54H93.3472C88.8187 200.54 85.1344 196.871 85.1344 192.36V172.522C85.1344 168.011 88.8187 164.342 93.3472 164.342H130.026C134.554 164.342 138.239 168.011 138.239 172.522V192.36C138.239 196.871 134.554 200.54 130.026 200.54ZM93.3472 167.323C90.4692 167.323 88.1276 169.655 88.1276 172.522V192.36C88.1276 195.227 90.4692 197.559 93.3472 197.559H130.026C132.904 197.559 135.246 195.227 135.246 192.36V172.522C135.246 169.655 132.904 167.323 130.026 167.323H93.3472Z" fill="#00227B"/>
<path d="M124.68 188.21C127.879 188.21 130.473 185.627 130.473 182.441C130.473 179.255 127.879 176.672 124.68 176.672C121.481 176.672 118.888 179.255 118.888 182.441C118.888 185.627 121.481 188.21 124.68 188.21Z" fill="#22A7F0"/>
<g opacity="0.7">
<g opacity="0.7">
<g opacity="0.7">
<g opacity="0.7">
<path opacity="0.7" d="M130.472 182.441C130.472 182.836 130.435 183.219 130.36 183.594C129.825 180.956 127.485 178.971 124.682 178.971C121.875 178.971 119.535 180.956 119 183.594C118.925 183.219 118.887 182.837 118.887 182.441C118.887 179.253 121.481 176.673 124.682 176.673C127.877 176.673 130.472 179.253 130.472 182.441Z" fill="white"/>
</g>
</g>
</g>
</g>
<g opacity="0.35">
<g opacity="0.35">
<g opacity="0.35">
<g opacity="0.35">
<path opacity="0.35" d="M130.471 182.44C130.471 185.625 127.878 188.207 124.68 188.207C121.482 188.207 118.89 185.625 118.89 182.44C118.89 181.703 119.029 181 119.287 180.353C120.121 182.505 122.223 184.028 124.681 184.028C127.14 184.028 129.24 182.505 130.075 180.353C130.332 181 130.471 181.702 130.471 182.44Z" fill="#00227B"/>
</g>
</g>
</g>
</g>
<path d="M124.68 189.328C120.868 189.328 117.766 186.238 117.766 182.441C117.766 178.643 120.868 175.554 124.68 175.554C128.493 175.554 131.595 178.643 131.595 182.441C131.595 186.238 128.493 189.328 124.68 189.328ZM124.68 177.79C122.106 177.79 120.011 179.877 120.011 182.441C120.011 185.005 122.106 187.091 124.68 187.091C127.255 187.091 129.35 185.005 129.35 182.441C129.35 179.877 127.255 177.79 124.68 177.79Z" fill="#00227B"/>
<path d="M108.267 200.168C107.647 200.168 107.145 199.667 107.145 199.05V185.463L99.8103 179.963V165.832C99.8103 165.214 100.313 164.715 100.933 164.715C101.552 164.715 102.055 165.215 102.055 165.832V178.846L109.39 184.347V199.05C109.39 199.667 108.887 200.168 108.267 200.168Z" fill="#00227B"/>
<path d="M112.406 209.73C118.894 209.73 125.133 207.332 130.006 203.065C136.756 197.155 148.119 190.107 160.662 194.628C165.694 196.441 169.124 199.767 171.464 203.447C177.49 189.541 190.13 188.707 195.602 196.589C195.602 196.589 186.405 240.29 183.408 241.263C179.114 242.656 168.796 241.191 168.796 241.191C168.796 241.191 132.902 236.351 112.406 236.351C91.9091 236.351 56.0153 241.191 56.0153 241.191C56.0153 241.191 45.6979 242.655 41.4039 241.263C38.4066 240.29 29.2097 196.589 29.2097 196.589C34.6803 188.707 47.322 189.541 53.3479 203.447C55.687 199.766 59.1171 196.441 64.15 194.628C76.6921 190.107 88.0553 197.155 94.8052 203.065C99.6785 207.332 105.917 209.73 112.406 209.73Z" fill="white"/>
<g opacity="0.35">
<path d="M195.603 196.587C195.603 196.587 186.405 240.29 183.408 241.263C179.116 242.657 168.796 241.192 168.796 241.192C168.796 241.192 132.904 236.351 112.405 236.351C91.9111 236.351 56.0149 241.192 56.0149 241.192C56.0149 241.192 45.6983 242.657 41.4068 241.263C38.4094 240.29 29.2118 196.587 29.2118 196.587C30.1135 195.29 31.2062 194.228 32.4337 193.423C35.3825 206.237 39.5654 222.967 41.4068 223.564C45.6991 224.953 56.0149 223.489 56.0149 223.489C56.0149 223.489 91.9111 213.806 112.405 213.806C132.904 213.806 168.796 223.489 168.796 223.489C168.796 223.489 179.116 224.953 183.408 223.564C185.249 222.967 189.432 206.237 192.381 193.423C193.609 194.229 194.701 195.291 195.603 196.587Z" fill="#00227B"/>
</g>
<path d="M46.9377 243.35C44.6866 243.35 42.4874 243.182 40.9406 242.68C39.8858 242.338 38.9989 241.173 37.3344 236.009C36.3603 232.986 35.1911 228.776 33.8607 223.497C31.4648 213.993 29.1298 203.333 28.2372 199.192C27.7698 197.023 28.4832 194.78 30.0999 193.34C33.2033 190.572 37.3632 189.507 41.5116 190.417C44.1263 190.99 46.6703 192.35 48.8687 194.349C50.6895 196.005 52.2725 198.073 53.5922 200.519C56.2703 197.115 59.642 194.667 63.6422 193.226C68.1748 191.592 72.9172 191.267 77.7386 192.261C81.6311 193.064 85.5894 194.729 89.5024 197.21C90.2001 197.653 90.405 198.574 89.9615 199.269C89.5181 199.964 88.5925 200.168 87.8948 199.726C79.8408 194.619 72.0237 193.376 64.6608 196.03C60.5083 197.527 57.1276 200.29 54.6141 204.245C54.317 204.713 53.7839 204.977 53.2318 204.935C52.6789 204.891 52.1951 204.547 51.9746 204.039C49.457 198.228 45.409 194.325 40.8682 193.33C37.6709 192.629 34.4737 193.443 32.0967 195.563C31.2789 196.292 30.9218 197.443 31.1645 198.568C32.007 202.477 34.2153 212.563 36.5158 221.778C37.7804 226.843 38.901 230.964 39.8471 234.025C41.1718 238.312 41.8637 239.569 42.1097 239.92C45.4913 240.864 53.0969 240.102 55.8054 239.717C55.8087 239.716 55.812 239.716 55.8153 239.716C56.1748 239.667 92.0448 234.862 112.406 234.862C132.769 234.862 168.638 239.667 168.998 239.716C169.001 239.716 169.005 239.716 169.008 239.717C171.718 240.102 179.322 240.864 182.704 239.92C182.946 239.576 183.619 238.354 184.899 234.243C185.823 231.278 186.917 227.283 188.151 222.367C190.351 213.603 192.46 204.067 193.521 199.163C193.869 197.556 193.264 195.909 191.981 194.966C189.531 193.168 186.495 192.631 183.434 193.455C179.047 194.636 175.284 198.395 172.839 204.04C172.619 204.547 172.136 204.892 171.582 204.935C171.028 204.979 170.497 204.713 170.2 204.246C167.686 200.291 164.306 197.527 160.154 196.031C152.726 193.354 144.842 194.64 136.719 199.855C136.024 200.3 135.098 200.101 134.65 199.409C134.202 198.717 134.402 197.794 135.097 197.348C139.034 194.821 143.018 193.119 146.938 192.291C151.807 191.262 156.596 191.577 161.172 193.227C165.173 194.668 168.544 197.117 171.223 200.521C174.035 195.316 178.028 191.821 182.653 190.577C186.557 189.525 190.604 190.25 193.758 192.566C195.988 194.204 197.043 197.039 196.448 199.791C195.324 204.986 193.096 215.052 190.804 224.088C189.505 229.212 188.363 233.295 187.411 236.221C185.787 241.214 184.915 242.345 183.872 242.682C179.321 244.159 169.113 242.744 168.593 242.67C168.03 242.594 132.508 237.844 112.407 237.844C92.3031 237.844 56.7845 242.594 56.2217 242.67C55.8762 242.717 51.3107 243.35 46.9377 243.35Z" fill="#00227B"/>
<path d="M180.742 241.263H183.408C186.538 241.263 189.376 239.435 190.65 236.588C194.64 227.687 201.916 208.131 195.101 196.197C194.903 195.848 194.691 195.513 194.466 195.192C194.466 195.192 187.923 189.265 183.223 197.649C178.833 205.483 169.617 238.976 180.742 241.263Z" fill="#AFAFB2"/>
<g opacity="0.7">
<g opacity="0.7">
<g opacity="0.7">
<g opacity="0.7">
<path opacity="0.7" d="M180.816 203.232C180.933 203.045 181.051 202.868 181.165 202.703C186.945 194.318 194.99 200.245 194.99 200.245C195.266 200.567 195.528 200.902 195.77 201.25C196.577 202.399 197.222 203.618 197.727 204.894C197.401 201.759 196.587 198.796 195.101 196.197C194.903 195.849 194.691 195.514 194.466 195.193C194.466 195.193 187.924 189.265 183.223 197.65C182.51 198.92 181.673 200.858 180.816 203.232Z" fill="white"/>
</g>
</g>
</g>
</g>
<path d="M197.691 205.788C197.624 205.788 197.556 205.782 197.487 205.77L181.133 203.051C180.461 202.94 180.007 202.307 180.119 201.636C180.231 200.967 180.868 200.514 181.539 200.626L197.892 203.345C198.564 203.456 199.019 204.09 198.907 204.76C198.806 205.362 198.284 205.788 197.691 205.788Z" fill="#00227B"/>
<path d="M197.587 214.588C197.532 214.588 197.477 214.585 197.421 214.576L178.291 212.015C177.616 211.925 177.142 211.306 177.232 210.633C177.323 209.96 177.944 209.488 178.62 209.578L197.75 212.14C198.426 212.23 198.9 212.849 198.809 213.522C198.726 214.14 198.196 214.588 197.587 214.588Z" fill="#00227B"/>
<path d="M195.9 223.207C195.85 223.207 195.8 223.204 195.749 223.198L176.329 220.831C175.653 220.748 175.171 220.135 175.254 219.461C175.337 218.788 175.951 218.308 176.628 218.39L196.048 220.758C196.724 220.841 197.206 221.454 197.124 222.127C197.047 222.751 196.515 223.207 195.9 223.207Z" fill="#00227B"/>
<path d="M192.82 232.607C192.783 232.607 192.746 232.606 192.708 232.603L175.346 231.042C174.667 230.982 174.167 230.383 174.228 229.707C174.289 229.031 174.889 228.532 175.568 228.594L192.93 230.154C193.609 230.215 194.11 230.813 194.048 231.489C193.99 232.127 193.451 232.607 192.82 232.607Z" fill="#00227B"/>
<g opacity="0.35">
<g opacity="0.35">
<g opacity="0.35">
<g opacity="0.35">
<path opacity="0.35" d="M180.741 241.263H183.407C186.537 241.263 189.375 239.434 190.649 236.588C191.681 234.281 192.936 231.263 194.109 227.845C192.509 230.49 189.257 232.167 185.687 232.167H182.51C177.988 231.387 176.286 226.97 176.219 221.181C174.69 230.953 175.11 240.105 180.741 241.263Z" fill="#00227B"/>
</g>
</g>
</g>
</g>
<path d="M183.408 242.492H180.743C180.659 242.492 180.576 242.484 180.493 242.467C178.338 242.023 176.71 240.632 175.653 238.33C173.161 232.903 174.372 223.449 175.827 216.474C177.606 207.949 180.353 200.25 182.146 197.05C183.795 194.108 185.872 192.415 188.319 192.017C192.073 191.407 195.167 194.165 195.297 194.282C195.365 194.344 195.426 194.413 195.479 194.488C195.725 194.839 195.959 195.21 196.176 195.589C199.291 201.044 199.951 208.505 198.141 217.764C196.668 225.292 193.868 232.428 191.778 237.088C190.308 240.371 187.023 242.492 183.408 242.492ZM180.877 240.033H183.408C186.049 240.033 188.45 238.485 189.523 236.088C191.56 231.544 194.288 224.595 195.717 217.295C197.412 208.63 196.844 201.735 194.029 196.804C193.876 196.536 193.712 196.273 193.542 196.023C193.08 195.647 190.979 194.068 188.703 194.446C187.042 194.722 185.561 196.001 184.302 198.249C182.641 201.211 179.954 208.78 178.245 216.974C176.294 226.325 176.17 233.547 177.898 237.308C178.599 238.835 179.574 239.728 180.877 240.033Z" fill="#00227B"/>
<path d="M44.0713 241.263H41.4055C38.2757 241.263 35.438 239.435 34.1636 236.588C30.1732 227.687 22.8975 208.131 29.7124 196.197C29.9107 195.848 30.123 195.513 30.3476 195.192C30.3476 195.192 36.8902 189.265 41.5906 197.649C45.9809 205.483 55.1958 238.976 44.0713 241.263Z" fill="#AFAFB2"/>
<g opacity="0.7">
<g opacity="0.7">
<g opacity="0.7">
<g opacity="0.7">
<path opacity="0.7" d="M43.9965 203.232C43.8788 203.045 43.7612 202.868 43.6468 202.703C37.8677 194.318 29.822 200.245 29.822 200.245C29.5463 200.567 29.2839 200.902 29.042 201.25C28.2348 202.399 27.5898 203.618 27.0854 204.894C27.4113 201.759 28.225 198.796 29.7109 196.197C29.9092 195.849 30.1214 195.514 30.3461 195.193C30.3461 195.193 36.8887 189.265 41.5891 197.65C42.3016 198.92 43.1392 200.858 43.9965 203.232Z" fill="white"/>
</g>
</g>
</g>
</g>
<path d="M27.1212 205.788C26.5288 205.788 26.0063 205.362 25.9051 204.761C25.7933 204.091 26.2466 203.458 26.9196 203.346L43.2728 200.627C43.945 200.515 44.581 200.967 44.6929 201.637C44.8048 202.306 44.3515 202.94 43.6784 203.052L27.3252 205.771C27.2569 205.783 27.1887 205.788 27.1212 205.788Z" fill="#00227B"/>
<path d="M27.2246 214.588C26.6157 214.588 26.0859 214.14 26.0028 213.523C25.9123 212.85 26.3862 212.231 27.0617 212.141L46.1925 209.579C46.8689 209.488 47.4892 209.96 47.5805 210.633C47.671 211.306 47.1971 211.925 46.5216 212.015L27.3908 214.577C27.3348 214.585 27.2797 214.588 27.2246 214.588Z" fill="#00227B"/>
<path d="M28.9128 223.207C28.2982 223.207 27.7659 222.751 27.6894 222.127C27.6063 221.453 28.0876 220.84 28.7647 220.758L48.1844 218.39C48.8607 218.308 49.4761 218.787 49.5592 219.461C49.6423 220.135 49.161 220.748 48.4839 220.831L29.0642 223.198C29.0132 223.205 28.9622 223.207 28.9128 223.207Z" fill="#00227B"/>
<path d="M31.9928 232.607C31.361 232.607 30.8229 232.127 30.7653 231.489C30.7044 230.813 31.2046 230.215 31.8834 230.154L49.2453 228.594C49.9249 228.533 50.5239 229.031 50.5856 229.707C50.6465 230.383 50.1462 230.981 49.4675 231.042L32.1055 232.602C32.0677 232.606 32.0299 232.607 31.9928 232.607Z" fill="#00227B"/>
<g opacity="0.35">
<g opacity="0.35">
<g opacity="0.35">
<g opacity="0.35">
<path opacity="0.35" d="M44.0704 241.263H41.4047C38.2749 241.263 35.4372 239.434 34.1627 236.588C33.131 234.281 31.8763 231.263 30.703 227.845C32.3033 230.49 35.5548 232.167 39.1248 232.167H42.3023C46.8242 231.387 48.5257 226.97 48.5931 221.181C50.1218 230.953 49.7014 240.105 44.0704 241.263Z" fill="#00227B"/>
</g>
</g>
</g>
</g>
<path d="M44.0706 242.492H41.4049C37.7905 242.492 34.5052 240.371 33.0358 237.088C30.9468 232.429 28.1461 225.293 26.6733 217.765C24.8624 208.506 25.5231 201.045 28.6381 195.589C28.8545 195.21 29.089 194.84 29.3341 194.489C29.3868 194.413 29.4477 194.345 29.516 194.283C29.646 194.165 32.7404 191.408 36.4938 192.018C38.9407 192.416 41.0182 194.109 42.667 197.051C44.4606 200.251 47.207 207.95 48.9858 216.475C50.4413 223.45 51.6524 232.904 49.1602 238.331C48.103 240.633 46.4747 242.024 44.3199 242.467C44.2376 242.484 44.1537 242.492 44.0706 242.492ZM31.2701 196.024C31.0998 196.274 30.9369 196.536 30.7839 196.804C27.9684 201.735 27.3998 208.629 29.0955 217.296C30.5239 224.596 33.2513 231.544 35.2893 236.088C36.363 238.486 38.763 240.034 41.4041 240.034H43.9357C45.2381 239.729 46.2139 238.836 46.9149 237.308C48.6419 233.547 48.5193 226.325 46.5685 216.974C44.8588 208.78 42.1717 201.211 40.5114 198.249C39.2517 196.002 37.7707 194.722 36.1104 194.446C33.8379 194.069 31.7383 195.643 31.2701 196.024Z" fill="#00227B"/>
<path d="M74.1618 240.141C73.9866 240.141 73.8088 240.1 73.6426 240.013C73.093 239.727 72.8808 239.051 73.1687 238.504C77.856 229.584 77.9251 219.552 73.3744 208.688C69.9419 200.494 65.0267 194.887 64.9773 194.831C64.5676 194.368 64.612 193.662 65.0769 193.253C65.5417 192.845 66.251 192.888 66.6607 193.351C66.8705 193.588 71.8392 199.246 75.4198 207.764C77.5327 212.789 78.7109 217.763 78.9231 222.546C79.1897 228.56 77.9227 234.278 75.1574 239.54C74.9566 239.923 74.5658 240.141 74.1618 240.141Z" fill="#00227B"/>
<path d="M151.106 240.141C150.701 240.141 150.311 239.923 150.11 239.541C147.345 234.278 146.078 228.561 146.345 222.547C146.557 217.764 147.735 212.79 149.848 207.764C153.429 199.247 158.397 193.588 158.607 193.352C159.018 192.889 159.727 192.845 160.192 193.254C160.657 193.662 160.701 194.368 160.29 194.831C160.241 194.887 155.326 200.494 151.893 208.688C147.343 219.552 147.412 229.584 152.099 238.504C152.386 239.051 152.174 239.726 151.625 240.013C151.459 240.1 151.281 240.141 151.106 240.141Z" fill="#00227B"/>
<g opacity="0.35">
<path d="M149.604 132.726C148.308 134.202 146.947 135.603 145.528 136.919C142.161 140.042 138.471 142.7 134.523 144.806C127.855 148.369 120.457 150.367 112.666 150.404C105.055 150.437 97.8107 148.596 91.2442 145.249C86.9445 143.054 82.9368 140.217 79.3109 136.837C77.5074 135.152 75.7969 133.337 74.1917 131.403C77.0993 130.509 79.988 129.472 82.6332 128.447C85.9185 120.565 89.7501 112.492 94.2185 104.419H130.594C134.287 111.094 137.546 117.765 140.42 124.336C143.16 125.927 146.314 128.924 149.604 132.726Z" fill="#00227B"/>
</g>
<path d="M167.953 96.7336C167.32 96.8016 166.751 96.3451 166.683 95.7142L163.133 62.8089C163.064 62.1779 163.523 61.6117 164.156 61.5436C170.802 60.8323 176.768 65.6214 177.482 72.2403L178.694 83.4613C179.408 90.0803 174.599 96.0223 167.953 96.7336Z" fill="white"/>
<path d="M167.828 97.0236C167.501 97.0236 167.186 96.9138 166.928 96.7065C166.629 96.4664 166.442 96.1247 166.401 95.7444L162.851 62.8392C162.81 62.4589 162.92 62.0852 163.161 61.7878C163.402 61.4903 163.745 61.3035 164.127 61.2625C170.919 60.5356 177.036 65.4467 177.766 72.2107L178.976 83.4318C179.33 86.7081 178.381 89.9253 176.305 92.4911C174.229 95.0569 171.273 96.6639 167.984 97.0162L167.954 96.7343L167.984 97.0162C167.932 97.0212 167.879 97.0236 167.828 97.0236ZM165.459 61.7566C165.038 61.7566 164.615 61.7788 164.188 61.8247C163.957 61.8492 163.749 61.9623 163.604 62.1418C163.458 62.3221 163.391 62.5474 163.416 62.7777L166.966 95.683C166.991 95.9132 167.104 96.1197 167.285 96.2648C167.466 96.4098 167.693 96.4762 167.924 96.4516C171.063 96.1156 173.882 94.5824 175.863 92.1346C177.844 89.6869 178.749 86.6171 178.412 83.4908L177.201 72.2697C176.55 66.2425 171.414 61.7566 165.459 61.7566Z" fill="#00227B"/>
<g opacity="0.35">
<g opacity="0.35">
<g opacity="0.35">
<g opacity="0.35">
<path opacity="0.35" d="M178.126 78.1995L178.695 83.4621C179.408 90.0786 174.6 96.0222 167.954 96.736C167.32 96.8048 166.752 96.3443 166.684 95.7141L165.737 86.967C165.957 87.3465 166.388 87.5792 166.853 87.5333L167.636 87.4472C172.887 86.8859 176.994 83.0549 178.126 78.1995Z" fill="#00227B"/>
</g>
</g>
</g>
</g>
<path d="M167.826 98.3177C167.204 98.3177 166.605 98.1079 166.114 97.7137C165.544 97.2573 165.188 96.6066 165.11 95.883L161.56 62.9778C161.482 62.2542 161.691 61.5429 162.15 60.9758C162.608 60.4087 163.261 60.0539 163.988 59.976C171.49 59.1729 178.25 64.5995 179.057 72.0723L180.267 83.2934C180.658 86.913 179.61 90.4679 177.316 93.3033C175.022 96.1378 171.757 97.9137 168.122 98.3021C168.024 98.3119 167.925 98.3177 167.826 98.3177ZM167.786 95.166H167.786C167.786 95.166 167.786 95.166 167.786 95.166ZM164.755 63.0745L168.212 95.1127C170.834 94.7259 173.179 93.3918 174.852 91.3243C176.615 89.1453 177.421 86.4131 177.121 83.6302L175.91 72.4091C175.306 66.8072 170.349 62.7008 164.755 63.0745Z" fill="#00227B"/>
<path d="M55.1084 73.2155C55.7419 73.1474 56.3104 73.6039 56.3787 74.2349L59.9289 107.14C59.9972 107.771 59.5389 108.337 58.9054 108.405C52.26 109.117 46.2941 104.328 45.5799 97.7088L44.3697 86.4877C43.6539 79.8688 48.4629 73.9268 55.1084 73.2155Z" fill="white"/>
<path d="M57.6024 108.759C51.3609 108.759 45.9776 104.057 45.2963 97.7391L44.086 86.518C43.3562 79.7541 48.287 73.6605 55.0781 72.9336L55.1086 73.2155L55.0781 72.9336C55.8655 72.8492 56.5764 73.4195 56.6611 74.2046L60.2114 107.11C60.2961 107.895 59.7235 108.602 58.9352 108.687C58.4885 108.735 58.0425 108.759 57.6024 108.759ZM55.232 73.4916C55.2007 73.4916 55.1703 73.4933 55.1382 73.4966C48.6589 74.1898 43.9544 80.004 44.6513 86.4574L45.8615 97.6785C46.5576 104.132 52.3943 108.818 58.8744 108.124C59.3507 108.074 59.6971 107.646 59.6461 107.171L56.0959 74.266C56.0482 73.8219 55.6697 73.4916 55.232 73.4916Z" fill="#00227B"/>
<g opacity="0.35">
<g opacity="0.35">
<g opacity="0.35">
<g opacity="0.35">
<path opacity="0.35" d="M58.9472 98.0111L59.9312 107.14C60.0003 107.771 59.5379 108.337 58.9052 108.405C55.4167 108.777 52.1125 107.636 49.659 105.507C47.4433 103.584 45.9212 100.852 45.5814 97.7103L45.0713 92.9819C47.4055 96.9285 51.92 99.3681 56.7924 98.8478L57.9977 98.7183C58.4371 98.6707 58.7851 98.388 58.9472 98.0111Z" fill="#00227B"/>
</g>
</g>
</g>
</g>
<path d="M57.6016 110.052C50.7052 110.052 44.7583 104.858 44.0055 97.8767L42.7952 86.6556C41.9889 79.1828 47.4372 72.45 54.94 71.6469C56.4391 71.4863 57.7917 72.5712 57.9529 74.0651L61.5032 106.971C61.6644 108.466 60.5751 109.812 59.0744 109.972C58.5799 110.026 58.0879 110.052 57.6016 110.052ZM54.8511 74.8371C49.3057 75.6566 45.3383 80.7176 45.9423 86.3196L47.1525 97.5407C47.7573 103.143 52.7136 107.248 58.3076 106.875L54.8511 74.8371Z" fill="#00227B"/>
<path d="M111.537 141.37C142.808 141.37 168.159 116.121 168.159 84.974C168.159 53.8271 142.808 28.5776 111.537 28.5776C80.2649 28.5776 54.9142 53.8271 54.9142 84.974C54.9142 116.121 80.2649 141.37 111.537 141.37Z" fill="white"/>
<path d="M111.482 141.655C104.54 141.655 97.7576 140.415 91.2915 137.961C84.4157 135.351 78.1865 131.485 72.7752 126.471C67.3639 121.457 63.0444 115.547 59.9352 108.905C56.7166 102.028 54.9443 94.6644 54.6671 87.0178C54.3898 79.3713 55.6248 71.8993 58.3374 64.8092C60.9571 57.9608 64.8389 51.7566 69.8725 46.3669C74.9062 40.9772 80.8416 36.6741 87.5109 33.5773C94.4155 30.3716 101.809 28.6064 109.486 28.3302C117.163 28.0541 124.665 29.2841 131.784 31.9859C138.66 34.5951 144.889 38.4614 150.3 43.475C155.711 48.4893 160.031 54.3994 163.14 61.0413C166.359 67.9183 168.131 75.2821 168.408 82.9286C168.685 90.5752 167.45 98.0472 164.738 105.137C162.118 111.986 158.236 118.19 153.202 123.58C148.167 128.969 142.234 133.272 135.565 136.368C128.66 139.574 121.267 141.339 113.59 141.615C112.885 141.642 112.182 141.655 111.482 141.655ZM111.563 28.8596C110.879 28.8596 110.196 28.8719 109.506 28.8965C78.4613 30.0126 54.1158 56.0761 55.2356 86.9965C55.7778 101.975 62.1443 115.847 73.1619 126.056C83.6694 135.793 97.2096 141.087 111.486 141.088C112.179 141.088 112.872 141.075 113.568 141.05C128.606 140.51 142.534 134.169 152.784 123.195C163.034 112.222 168.38 97.9291 167.838 82.9508C166.744 52.717 141.697 28.8596 111.563 28.8596Z" fill="#00227B"/>
<g opacity="0.35">
<g opacity="0.35">
<g opacity="0.35">
<g opacity="0.35">
<path opacity="0.35" d="M167.299 75.1584C167.751 77.6939 168.029 80.2916 168.125 82.941C169.248 114.067 144.829 140.21 113.578 141.335C82.3272 142.454 56.0795 118.133 54.9498 87.0073C54.9169 86.1124 54.9054 85.2159 54.9161 84.3317C59.7243 111.63 84.125 131.904 112.718 130.877C143.071 129.785 166.975 105.095 167.299 75.1584Z" fill="#00227B"/>
</g>
</g>
</g>
</g>
<path d="M111.482 142.948C104.38 142.948 97.4437 141.679 90.8295 139.169C83.7973 136.5 77.4251 132.546 71.8912 127.418C66.3573 122.29 61.939 116.244 58.7591 109.451C55.4664 102.417 53.6538 94.8839 53.3708 87.0637C53.0878 79.2434 54.3507 71.6002 57.1259 64.3478C59.8056 57.3438 63.7754 50.9969 68.9243 45.4851C74.0731 39.9733 80.141 35.5719 86.9625 32.4055C94.0251 29.1259 101.588 27.3206 109.44 27.0387C117.292 26.7568 124.965 28.0147 132.246 30.7788C139.279 33.4479 145.651 37.4018 151.185 42.5301C156.719 47.6584 161.137 53.7036 164.317 60.4971C167.61 67.5315 169.422 75.0641 169.705 82.8844C169.988 90.7046 168.725 98.3479 165.95 105.6C163.27 112.604 159.301 118.951 154.152 124.463C149.003 129.975 142.933 134.375 136.113 137.543C129.05 140.822 121.487 142.627 113.636 142.909C112.917 142.935 112.197 142.948 111.482 142.948ZM111.564 30.1536C110.895 30.1536 110.228 30.1659 109.554 30.1896C79.2244 31.2795 55.44 56.7423 56.5343 86.9506C57.0642 101.584 63.2843 115.136 74.0476 125.11C84.3132 134.623 97.5408 139.795 111.489 139.795C112.165 139.795 112.843 139.783 113.523 139.758C128.215 139.231 141.821 133.035 151.836 122.315C161.85 111.595 167.073 97.6316 166.542 82.9983C165.472 53.4603 141.002 30.1536 111.564 30.1536Z" fill="#00227B"/>
<path d="M167.996 84.3948C168.563 95.4159 165.496 105.832 159.789 114.611C155.509 121.193 137.148 133.267 113.78 134.669C92.1124 135.968 71.7976 125.463 66.866 119.351C60.2872 111.198 56.1693 101.149 55.6024 90.1278C54.1025 60.9618 78.6397 47.5872 109.678 46.004C140.715 44.4207 166.496 55.2288 167.996 84.3948Z" fill="#58429C"/>
<path d="M110.019 135.864C99.2446 135.864 89.8741 133.19 83.654 130.8C75.7777 127.774 68.8542 123.547 66.0165 120.03C59.0518 111.399 55.0746 101.078 54.5143 90.1827C54.1424 82.9533 55.3395 76.3934 58.0703 70.6849C60.6414 65.3124 64.5849 60.6578 69.793 56.8489C79.3074 49.8899 93.0796 45.7654 109.62 44.9222C126.162 44.079 140.285 46.78 150.463 52.7343C156.034 55.9933 160.435 60.2226 163.543 65.3058C166.846 70.7062 168.71 77.1104 169.081 84.3398C169.641 95.2347 166.742 105.906 160.7 115.2C158.19 119.062 151.954 123.795 144.428 127.552C137.817 130.852 127.144 134.953 113.844 135.75C112.552 135.827 111.275 135.864 110.019 135.864ZM115.461 46.9373C113.588 46.9373 111.679 46.9865 109.732 47.0856C93.6169 47.9076 80.2519 51.8877 71.0806 58.5952C60.8413 66.0843 55.9985 76.6752 56.6872 90.072C57.2236 100.509 61.0363 110.399 67.7122 118.673C69.6984 121.134 75.2701 125.258 84.4373 128.779C91.1815 131.37 101.734 134.307 113.714 133.588C126.647 132.812 137.026 128.823 143.455 125.614C152.07 121.314 157.146 116.682 158.876 114.023C164.668 105.114 167.447 94.8873 166.91 84.4504C166.221 71.0536 160.317 61.011 149.363 54.6027C140.736 49.5563 129.098 46.9373 115.461 46.9373Z" fill="#00227B"/>
<g opacity="0.5">
<g opacity="0.5">
<g opacity="0.5">
<g opacity="0.5">
<path d="M156.723 82.2866C157.429 76.8198 154.778 71.9746 150.801 71.4645C146.824 70.9545 143.027 74.9727 142.32 80.4396C141.613 85.9064 144.265 90.7516 148.242 91.2616C152.219 91.7717 156.016 87.7534 156.723 82.2866Z" fill="white"/>
</g>
</g>
</g>
</g>
<g opacity="0.5">
<g opacity="0.5">
<g opacity="0.5">
<g opacity="0.5">
<path d="M145.468 102.607C146.138 100.166 144.976 97.724 142.873 97.1517C140.771 96.5794 138.524 98.0938 137.854 100.534C137.184 102.975 138.346 105.417 140.449 105.989C142.551 106.561 144.799 105.047 145.468 102.607Z" fill="white"/>
</g>
</g>
</g>
</g>
<g opacity="0.35">
<path d="M155.667 57.7429C162.872 63.9218 167.391 72.6795 167.995 84.3931C168.562 95.4167 165.494 105.832 159.79 114.611C155.509 121.193 137.146 133.267 113.778 134.671C105.528 135.169 97.4752 133.951 90.3895 131.913C119.077 129.577 141.439 114.767 146.745 106.603C153.991 95.4609 157.882 82.2395 157.16 68.2543C156.971 64.5159 156.458 61.0159 155.667 57.7429Z" fill="#00227B"/>
</g>
<path d="M58.5548 66.558C58.2356 66.558 57.9147 66.4588 57.6399 66.2532C56.9932 65.768 56.8443 64.8691 57.2845 64.2061C59.6343 60.3611 62.6349 56.8472 66.2024 53.7627C69.6761 50.7601 73.7159 48.1386 78.209 45.9711C82.6083 43.8495 87.4708 42.1499 92.6608 40.9191C97.8039 39.6997 103.294 38.9343 108.981 38.6442C114.574 38.359 120.055 38.5516 125.27 39.2154C130.533 39.8857 135.537 41.0387 140.142 42.6408C144.854 44.2806 149.166 46.3981 152.957 48.9344C156.854 51.5419 160.225 54.6084 162.978 58.0494C163.459 58.5796 163.508 59.3917 163.058 59.9817C162.549 60.6488 161.594 60.7782 160.924 60.2718L160.765 60.1538L160.645 60.0014C150.452 47.2044 131.677 40.5241 109.137 41.6738C86.4711 42.8301 68.5119 51.6313 59.863 65.8205L59.8235 65.8852L59.7717 65.9532C59.4739 66.349 59.0172 66.558 58.5548 66.558Z" fill="#00227B"/>
<g opacity="0.5">
<g opacity="0.5">
<g opacity="0.5">
<g opacity="0.5">
<path d="M69.1145 106.835C69.1145 106.835 58.5659 78.5249 73.5451 66.2647C88.5243 54.0045 110.926 52.9089 110.476 54.3659C110.476 54.3659 85.9861 61.6101 77.287 81.6299C70.579 97.068 69.1145 106.835 69.1145 106.835Z" fill="white"/>
</g>
</g>
</g>
</g>
<path d="M162.853 244.508H62.43C59.1785 244.508 56.5424 241.882 56.5424 238.644C56.5424 236.778 58.0612 235.265 59.9346 235.265H165.348C167.222 235.265 168.741 236.778 168.741 238.644C168.741 241.883 166.105 244.508 162.853 244.508Z" fill="#E6E9FA"/>
<g opacity="0.3">
<g opacity="0.3">
<g opacity="0.3">
<g opacity="0.3">
<path opacity="0.3" d="M168.739 238.644C168.739 239.285 168.635 239.901 168.444 240.478C167.916 239.297 166.73 238.477 165.349 238.477H59.9354C59 238.477 58.1509 238.853 57.5371 239.469C57.245 239.76 57.0056 240.099 56.8377 240.479C56.6469 239.901 56.5424 239.287 56.5424 238.645C56.5424 237.713 56.92 236.868 57.5379 236.256C58.1517 235.642 59.0008 235.265 59.9363 235.265H165.349C167.224 235.264 168.739 236.777 168.739 238.644Z" fill="white"/>
</g>
</g>
</g>
</g>
<g opacity="0.35">
<g opacity="0.35">
<g opacity="0.35">
<g opacity="0.35">
<path opacity="0.35" d="M168.739 238.644C168.739 240.262 168.081 241.731 167.014 242.788C165.951 243.851 164.476 244.507 162.853 244.507H62.4317C59.1801 244.507 56.5415 241.883 56.5415 238.644C56.5415 238.022 56.7102 237.437 57.0088 236.933C57.8991 239.032 59.9946 240.508 62.4308 240.508H162.852C164.476 240.508 165.951 239.852 167.013 238.789C167.544 238.26 167.975 237.631 168.27 236.933C168.571 237.437 168.739 238.022 168.739 238.644Z" fill="#00227B"/>
</g>
</g>
</g>
</g>
<path d="M162.854 245.999H62.4307C58.3588 245.999 55.0464 242.7 55.0464 238.644C55.0464 235.96 57.2399 233.775 59.9352 233.775H165.349C168.044 233.775 170.238 235.96 170.238 238.644C170.238 242.699 166.925 245.999 162.854 245.999ZM59.9344 236.756C58.8895 236.756 58.0388 237.603 58.0388 238.644C58.0388 241.056 60.0085 243.018 62.4299 243.018H162.854C165.275 243.018 167.245 241.056 167.245 238.644C167.245 237.604 166.395 236.756 165.349 236.756H59.9344Z" fill="#00227B"/>
<path d="M174.603 169.244L164.781 235.263H60.5047L60.1493 232.875L50.6777 169.244C50.3675 167.154 51.9949 165.279 54.1127 165.279H171.167C173.29 165.279 174.913 167.154 174.603 169.244Z" fill="#FF66AC"/>
<path d="M174.603 169.244L164.781 235.263H60.5047L60.1493 232.875L50.6777 169.244C50.3675 167.154 51.9949 165.279 54.1127 165.279H171.167C173.29 165.279 174.913 167.154 174.603 169.244Z" fill="#E6E9FA"/>
<g opacity="0.5">
<g opacity="0.5">
<g opacity="0.5">
<g opacity="0.5">
<path opacity="0.5" d="M54.3805 173.342C54.0703 171.252 55.6977 169.377 57.8155 169.377H174.583L174.603 169.245C174.913 167.154 173.29 165.279 171.168 165.279H54.1139C51.9961 165.279 50.3687 167.154 50.6789 169.245L60.1497 232.875L60.5051 235.264H63.5979L54.3805 173.342Z" fill="white"/>
</g>
</g>
</g>
</g>
<g opacity="0.35">
<g opacity="0.35">
<g opacity="0.35">
<g opacity="0.35">
<path opacity="0.35" d="M167.877 165.279H159.657C162.774 176.651 161.054 202.332 140.948 215.753C115.707 232.602 70.2182 232.494 60.5607 232.875L60.9161 235.263H161.49L171.312 169.244C171.622 167.154 169.999 165.279 167.877 165.279Z" fill="#00227B"/>
</g>
</g>
</g>
</g>
<path d="M166.07 236.756H59.2134L49.1996 169.462C48.9873 168.037 49.4077 166.595 50.3523 165.504C51.2968 164.413 52.6683 163.788 54.1139 163.788H171.17C172.616 163.788 173.987 164.413 174.932 165.504C175.876 166.595 176.296 168.037 176.084 169.462L166.07 236.756ZM61.796 233.774H163.488L173.123 169.024C173.209 168.45 173.046 167.891 172.665 167.451C172.284 167.011 171.753 166.769 171.17 166.769H54.1139C53.5306 166.769 52.9999 167.012 52.619 167.451C52.238 167.891 52.0751 168.45 52.1607 169.024L61.796 233.774Z" fill="#00227B"/>
<g opacity="0.3">
<g opacity="0.3">
<g opacity="0.3">
<g opacity="0.3">
<path opacity="0.3" d="M68.8051 219.839C64.8492 211.154 61.9688 196.329 62.6179 187.604C63.2671 178.879 68.3476 181.549 69.9224 192.725C74.1127 222.469 70.5707 223.717 68.8051 219.839Z" fill="white"/>
</g>
</g>
</g>
</g>
<path d="M174.085 172.728C174.085 172.728 166.004 168.908 158.415 172.334C151.148 175.615 146.006 198.975 155.422 204.893C161.233 208.545 165.189 205.319 168.477 206.266C173.353 207.671 183.358 183.618 174.085 172.728Z" fill="white"/>
<g opacity="0.35">
<path d="M177.732 187.93C176.774 197.721 171.584 207.161 168.478 206.266C165.189 205.32 161.234 208.547 155.422 204.895C150.924 202.066 149.75 195.261 150.543 188.559C151.077 192.469 152.593 195.819 155.422 197.597C161.234 201.245 165.103 199.55 168.478 198.969C172.65 198.249 176.052 193.71 177.732 187.93Z" fill="#00227B"/>
</g>
<path d="M161.381 208.17C159.42 208.17 157.151 207.743 154.623 206.154C152.359 204.731 150.724 202.429 149.764 199.312C148.958 196.696 148.657 193.509 148.892 190.094C149.171 186.05 150.17 181.901 151.703 178.411C152.874 175.746 154.883 172.292 157.796 170.976C165.924 167.307 174.371 171.212 174.726 171.38L175.017 171.518L175.225 171.763C179.469 176.747 179.714 183.633 179.172 188.531C178.562 194.05 176.606 199.905 174.068 203.81C171.525 207.722 169.397 208.084 168.059 207.699C167.191 207.449 166.094 207.623 164.824 207.826C163.82 207.986 162.667 208.17 161.381 208.17ZM165.332 172.394C163.058 172.394 160.949 172.828 159.033 173.693C157.458 174.404 155.785 176.56 154.447 179.608C153.068 182.745 152.132 186.641 151.88 190.3C151.434 196.759 153.016 201.619 156.22 203.633C159.451 205.664 161.944 205.266 164.353 204.882C165.91 204.634 167.381 204.399 168.893 204.835C169.066 204.865 170.312 204.386 172.068 201.355C176.165 194.287 178.763 180.939 173.159 173.951C172.523 173.688 170.889 173.069 168.749 172.699C167.574 172.496 166.433 172.394 165.332 172.394Z" fill="#00227B"/>
<path d="M82.222 192.716C81.858 192.716 81.578 192.996 81.578 193.346V195.782H77.434C75.404 195.782 73.752 194.13 73.752 192.1C73.752 190.07 75.404 188.418 77.434 188.418H81.62C81.97 188.418 82.25 188.138 82.25 187.774V187.186C77.448 187.186 77.42 187.186 77.434 187.186C74.718 187.186 72.52 189.384 72.52 192.1C72.52 194.816 74.718 197.014 77.434 197.014C77.434 197.014 77.378 197 81.578 197H82.852V192.716H82.222ZM93.558 187.186C93.292 187.186 93.054 187.186 92.802 187.186C92.396 187.186 92.032 187.424 91.836 187.774L87.146 197C87.594 197 87.986 197 88.546 197L92.844 188.572L96.526 195.782H91.99L91.36 197C91.92 197 98.094 197 98.556 197L93.558 187.186ZM111.776 187.186C111.3 187.186 110.852 187.382 110.53 187.732L106.736 191.722L102.956 187.732C102.634 187.382 102.172 187.186 101.71 187.186C101.486 187.186 101.262 187.186 101.038 187.186V187.438L102.312 188.782L106.036 192.716C106.218 192.716 106.47 192.716 106.708 192.716C107.184 192.716 107.632 192.52 107.954 192.17L111.146 188.81V196.37C111.146 196.72 111.426 197 111.79 197H112.42L112.448 187.186C112.224 187.186 112 187.186 111.776 187.186ZM126.057 195.782H117.391V197H126.701V196.426C126.701 196.062 126.407 195.782 126.057 195.782ZM126.561 187.774V187.186H117.391V188.418H125.917C126.267 188.418 126.561 188.138 126.561 187.774ZM125.693 192.072V191.484H117.391V192.716H125.049C125.413 192.716 125.693 192.422 125.693 192.072Z" fill="#7456D0"/>
<path d="M121.874 202.186C119.158 202.186 116.96 204.384 116.96 207.1C116.96 209.816 119.158 212.014 121.874 212.014C124.59 212.014 126.788 209.816 126.788 207.1C126.788 204.384 124.59 202.186 121.874 202.186ZM121.874 210.782C119.844 210.782 118.192 209.13 118.192 207.1C118.192 205.07 119.844 203.418 121.874 203.418C123.904 203.418 125.556 205.07 125.556 207.1C125.556 209.13 123.904 210.782 121.874 210.782ZM139.519 202.186C139.169 202.186 138.875 202.48 138.875 202.83V210.39L132.799 202.186C132.715 202.186 131.791 202.186 131.371 202.186H131.301V207.716H131.945C132.295 207.716 132.575 207.422 132.575 207.072V203.81L138.651 212C138.735 212 140.149 212 140.149 212V202.186H139.519Z" fill="#7456D0"/>
</svg>
