<svg width="20" height="20" viewBox="0 0 20 20" fill="none" xmlns="http://www.w3.org/2000/svg">
<path fill-rule="evenodd" clip-rule="evenodd" d="M5.12318 7.95119C4.52295 4.95005 6.81842 2.15002 9.87899 2.15002H10.4998C13.1864 2.15002 15.3498 4.35886 15.3498 7.02935C15.3498 8.52272 14.6614 9.95117 13.4774 10.872L10.9077 12.8707C10.8711 12.8991 10.8498 12.9428 10.8498 12.9891V13.5C10.8498 13.9695 10.4692 14.35 9.99978 14.35C9.53033 14.35 9.14978 13.9695 9.14978 13.5V12.9891C9.14978 12.4182 9.41335 11.8793 9.86399 11.5288L12.4337 9.53015C13.1984 8.93537 13.6498 8.0047 13.6498 7.02935C13.6498 5.28156 12.2314 3.85002 10.4998 3.85002H9.87899C7.8912 3.85002 6.40032 5.6686 6.79016 7.61779L6.83327 7.83333C6.92533 8.29365 6.6268 8.74145 6.16647 8.83352C5.70615 8.92558 5.25835 8.62705 5.16628 8.16672L5.12318 7.95119Z" fill="#9B9B9B"/>
<circle cx="9.9998" cy="16.7" r="0.6" stroke="#9B9B9B"/>
</svg>
